<?xml version="1.0" encoding="UTF-8"?>
<svg width="1024px" height="1024px" viewBox="0 0 1024 1024" version="1.1" xmlns="http://www.w3.org/2000/svg" xmlns:xlink="http://www.w3.org/1999/xlink">
    <title>1 Segment</title>
    <g id="1-Segment" stroke="none" fill="none" fill-rule="evenodd" stroke-width="1">
        <g id="Group" transform="translate(101, 170)" fill="#FFFFFF">
            <path d="M389.933962,0 C463.424306,0 523,59.3222707 523,132.5 C523,205.677729 463.424306,265 389.933962,265 C389.453583,265 293.588803,265 102.339623,265 C83.3743727,265 68,249.691027 68,230.806452 C68,211.921876 83.3743727,196.612903 102.339623,196.612903 L389.933962,196.612903 C425.493806,196.612903 454.320755,167.908579 454.320755,132.5 C454.320755,97.0914213 425.493806,68.3870968 389.933962,68.3870968 C355.071371,68.3870968 326.680227,95.9767974 325.580252,130.425041 L325.54717,132.5 C325.54717,151.384575 310.172797,166.693548 291.207547,166.693548 C272.242297,166.693548 256.867925,151.384575 256.867925,132.5 C256.867925,59.3222707 316.443619,0 389.933962,0 Z" id="Path" fill-rule="nonzero"></path>
            <path d="M578.606061,685 C652.277499,685 712,625.677729 712,552.5 C712,480.225699 653.743026,421.466859 581.328168,420.027039 L178.424242,420 L178.424242,420 C159.412258,420 144,435.308973 144,454.193548 C144,473.078124 159.412258,488.387097 178.424242,488.387097 L578.606061,488.387097 C614.253531,488.387097 643.151515,517.091421 643.151515,552.5 C643.151515,587.908579 614.253531,616.612903 578.606061,616.612903 C543.65756,616.612903 515.196455,589.023203 514.09377,554.574959 L514.060606,552.5 C514.060606,533.615425 498.648348,518.306452 479.636364,518.306452 C460.62438,518.306452 445.212121,533.615425 445.212121,552.5 C445.212121,625.677729 504.934622,685 578.606061,685 Z" id="Path" fill-rule="nonzero"></path>
            <path d="M672.260638,112 C745.570563,112 805,171.322271 805,244.5 C805,317.677729 745.570563,377 672.260638,377 C671.781439,377 459.112999,377 34.2553191,377 C15.3366288,377 0,361.691027 0,342.806452 C0,323.921876 15.3366288,308.612903 34.2553191,308.612903 L672.260638,308.612903 C707.733183,308.612903 736.489362,279.908579 736.489362,244.5 C736.489362,209.091421 707.733183,180.387097 672.260638,180.387097 C637.483634,180.387097 609.16219,207.976797 608.064916,242.425041 L608.031915,244.5 C608.031915,263.384575 592.695286,278.693548 573.776596,278.693548 C554.857905,278.693548 539.521277,263.384575 539.521277,244.5 C539.521277,171.322271 598.950713,112 672.260638,112 Z" id="Path" fill-rule="nonzero"></path>
        </g>
    </g>
</svg>